<?xml version="1.0"?>
<svg version="1.1" xmlns="http://www.w3.org/2000/svg" width="240" height="40" style=""><path fill="#ff0037" d="M29,29.464c0,3.892-3.164,5.992-6.804,5.992c-1.68,0-3.668-0.308-5.348-0.896c-0.364-0.14-0.476-0.308-0.476-0.532c0-0.112,0-0.224,0.056-0.364l0.588-1.82c0.084-0.28,0.224-0.448,0.504-0.448c0.112,0,0.252,0.028,0.42,0.084c1.316,0.476,2.772,0.84,4.172,0.84c1.512,0,3.22-0.728,3.22-2.492c0-1.288-0.952-1.988-2.044-2.52l-3.64-1.82c-1.988-0.98-3.304-2.632-3.304-4.816c0-3.416,3.36-5.292,6.468-5.292c1.848,0,3.388,0.28,5.012,0.98c0.364,0.168,0.56,0.336,0.56,0.56c0,0.112-0.028,0.224-0.084,0.364l-0.672,1.708c-0.112,0.308-0.28,0.42-0.476,0.42c-0.14,0-0.28-0.056-0.448-0.112c-1.148-0.476-2.576-0.868-3.696-0.868c-1.316,0-2.828,0.56-2.828,2.128c0,1.148,1.064,1.82,1.988,2.268l3.108,1.512c2.212,1.064,3.724,2.548,3.724,5.124z M49.566,34.672c0,0.28-0.14,0.448-0.504,0.448l-2.492,0c-0.588,0-0.784-0.224-0.952-0.672l-1.456-4.116l-7.084,0l-1.456,4.2c-0.112,0.364-0.308,0.588-0.756,0.588l-2.492,0c-0.28,0-0.392-0.14-0.392-0.364c0-0.084,0-0.196,0.056-0.308l6.832-18.144c0.14-0.336,0.336-0.56,0.756-0.56l2.24,0c0.42,0,0.672,0.196,0.784,0.504l6.86,18.06c0.056,0.14,0.056,0.252,0.056,0.364z M43.21,27.616l-1.988-5.908c-0.252-0.784-0.42-1.372-0.56-1.82l-0.056,0c-0.14,0.476-0.308,1.064-0.588,1.848l-1.988,5.88l5.18,0z M67.052,29.464c0,4.536-3.668,5.656-7.644,5.656l-5.208,0c-0.588,0-0.728-0.224-0.728-0.812l0-17.836c0-0.588,0.252-0.728,0.84-0.728l4.2,0c4.508,0,7.028,1.372,7.028,4.732c0,1.96-1.12,3.668-3.164,4.116l0,0.028c2.66,0.196,4.676,2.016,4.676,4.844z M62.012,20.896c0-1.82-1.428-2.408-3.388-2.408l-1.568,0l0,5.208l1.456,0c2.044,0,3.5-0.532,3.5-2.8z M63.384,29.352c0-1.316-0.588-2.156-1.484-2.604c-0.868-0.42-1.82-0.504-2.996-0.504l-1.848,0l0,6.104l2.072,0c0.98,0,1.932-0.084,2.632-0.364c0.98-0.42,1.624-1.288,1.624-2.632z M88.178,25.32c0,6.328-3.612,10.136-8.624,10.136c-5.348,0-8.428-3.892-8.428-9.968c0-6.02,3.36-10.108,8.624-10.108c5.544,0,8.428,4.2,8.428,9.94z M84.314,25.404c0-4.704-1.652-6.972-4.648-6.972c-2.8,0-4.676,2.604-4.676,6.972c0,4.648,1.708,7,4.676,7c2.772,0,4.648-2.436,4.648-7z M109.304,25.32c0,6.328-3.612,10.136-8.624,10.136c-5.348,0-8.428-3.892-8.428-9.968c0-6.02,3.36-10.108,8.624-10.108c5.544,0,8.428,4.2,8.428,9.94z M105.44,25.404c0-4.704-1.652-6.972-4.648-6.972c-2.8,0-4.676,2.604-4.676,6.972c0,4.648,1.708,7,4.676,7c2.772,0,4.648-2.436,4.648-7z M134.56,29.464c0,3.892-3.164,5.992-6.804,5.992c-1.68,0-3.668-0.308-5.348-0.896c-0.364-0.14-0.476-0.308-0.476-0.532c0-0.112,0-0.224,0.056-0.364l0.588-1.82c0.084-0.28,0.224-0.448,0.504-0.448c0.112,0,0.252,0.028,0.42,0.084c1.316,0.476,2.772,0.84,4.172,0.84c1.512,0,3.22-0.728,3.22-2.492c0-1.288-0.952-1.988-2.044-2.52l-3.64-1.82c-1.988-0.98-3.304-2.632-3.304-4.816c0-3.416,3.36-5.292,6.468-5.292c1.848,0,3.388,0.28,5.012,0.98c0.364,0.168,0.56,0.336,0.56,0.56c0,0.112-0.028,0.224-0.084,0.364l-0.672,1.708c-0.112,0.308-0.28,0.42-0.476,0.42c-0.14,0-0.28-0.056-0.448-0.112c-1.148-0.476-2.576-0.868-3.696-0.868c-1.316,0-2.828,0.56-2.828,2.128c0,1.148,1.064,1.82,1.988,2.268l3.108,1.512c2.212,1.064,3.724,2.548,3.724,5.124z M146.922,17.508c0,0.448-0.196,0.588-0.588,0.588l-1.596,0l0,14.672l1.512,0c0.392,0,0.588,0.252,0.588,0.588l0,1.204c0,0.336-0.14,0.56-0.504,0.56l-6.664,0c-0.364,0-0.56-0.224-0.56-0.532l0-1.26c0-0.392,0.168-0.56,0.56-0.56l1.484,0l0-14.672l-1.624,0c-0.392,0-0.56-0.196-0.56-0.56l0-1.232c0-0.308,0.168-0.56,0.504-0.56l6.86,0c0.392,0,0.588,0.252,0.588,0.532l0,1.232z M168.44,25.516c0,3.36-1.148,5.88-3.052,7.504c-1.736,1.456-4.172,2.1-6.944,2.1l-5.348,0c-0.56,0-0.812-0.14-0.812-0.784l0-17.752c0-0.588,0.168-0.84,0.868-0.84l4.032,0c3.22,0,5.404,0.364,7.252,1.428c2.52,1.456,4.004,4.2,4.004,8.344z M164.576,25.488c0-2.548-0.756-4.48-2.184-5.544c-1.148-0.84-2.632-1.148-4.424-1.148l-2.044,0l0,13.3l2.156,0c1.932,0,3.556-0.308,4.732-1.484c1.12-1.12,1.764-2.8,1.764-5.124z M189.482,25.516c0,3.36-1.148,5.88-3.052,7.504c-1.736,1.456-4.172,2.1-6.944,2.1l-5.348,0c-0.56,0-0.812-0.14-0.812-0.784l0-17.752c0-0.588,0.168-0.84,0.868-0.84l4.032,0c3.22,0,5.404,0.364,7.252,1.428c2.52,1.456,4.004,4.2,4.004,8.344z M185.618,25.488c0-2.548-0.756-4.48-2.184-5.544c-1.148-0.84-2.632-1.148-4.424-1.148l-2.044,0l0,13.3l2.156,0c1.932,0,3.556-0.308,4.732-1.484c1.12-1.12,1.764-2.8,1.764-5.124z M201.928,17.508c0,0.448-0.196,0.588-0.588,0.588l-1.596,0l0,14.672l1.512,0c0.392,0,0.588,0.252,0.588,0.588l0,1.204c0,0.336-0.14,0.56-0.504,0.56l-6.664,0c-0.364,0-0.56-0.224-0.56-0.532l0-1.26c0-0.392,0.168-0.56,0.56-0.56l1.484,0l0-14.672l-1.624,0c-0.392,0-0.56-0.196-0.56-0.56l0-1.232c0-0.308,0.168-0.56,0.504-0.56l6.86,0c0.392,0,0.588,0.252,0.588,0.532l0,1.232z M221.626,34.756c0,0.224-0.168,0.364-0.448,0.364l-2.8,0c-0.672,0-0.98-0.224-1.344-0.7l-6.048-7.756l-0.056,0l0,7.756c0,0.504-0.196,0.7-0.672,0.7l-2.24,0c-0.504,0-0.7-0.196-0.7-0.7l0-18.004c0-0.476,0.252-0.672,0.7-0.672l2.24,0c0.448,0,0.672,0.168,0.672,0.672l0,7.924l0.056,0l5.768-8.092c0.252-0.336,0.588-0.504,1.036-0.504l2.24,0c0.28,0,0.448,0.168,0.448,0.364c0,0.112-0.028,0.224-0.112,0.336l-6.44,8.652l7.448,9.156c0.14,0.168,0.252,0.364,0.252,0.504z"/><path fill="#" d=""/></svg>
